<svg width="860" height="565" viewBox="0 0 860 565" fill="none" xmlns="http://www.w3.org/2000/svg">
<path d="M410 59.6098C410.883 58.8693 411.78 58.4196 412.691 58.2608C413.602 58.1021 414.447 58.176 415.227 58.4827C416.006 58.7894 416.658 59.2553 417.183 59.8804C417.923 60.7629 418.352 61.6351 418.47 62.4972C418.587 63.3593 418.506 64.4197 418.226 65.6785L416.966 71.3092C416.849 71.7419 416.777 72.1047 416.752 72.3978C416.728 72.6683 416.747 72.8403 416.809 72.9138L423.501 67.2984L424.874 68.9347L416.215 76.2008L415.844 75.7595C415.32 75.1344 414.968 74.4166 414.789 73.6059C414.612 72.7728 414.624 71.9277 414.824 71.0707L416.168 65.243C416.333 64.3943 416.357 63.6751 416.238 63.0856C416.119 62.496 415.854 61.956 415.443 61.4658C415.134 61.0981 414.754 60.832 414.303 60.6676C413.841 60.4909 413.351 60.4537 412.831 60.5558C412.3 60.6457 411.784 60.9015 411.281 61.3232C410.767 61.7551 410.4 62.2511 410.18 62.8111C409.973 63.3608 409.913 63.9121 410.001 64.4649C410.089 65.0178 410.318 65.5148 410.689 65.956L410.905 66.2134C410.987 66.3115 411.055 66.3799 411.108 66.4186L409.306 67.9305L409.134 67.762L409.01 67.615C408.414 66.9041 408.008 66.0962 407.791 65.1915C407.565 64.2745 407.619 63.3309 407.954 62.3608C408.289 61.3907 408.971 60.4737 410 59.6098ZM431.726 53.1909L433.238 54.9926L428.587 58.8956L427.075 57.0939L431.726 53.1909ZM437.415 36.6061C438.187 35.9581 439.046 35.5506 439.992 35.3835C440.95 35.2062 441.892 35.2829 442.817 35.6136C443.742 35.9444 444.544 36.5143 445.223 37.3232L448.971 41.7908C449.64 42.5875 450.063 43.4649 450.24 44.423C450.407 45.3689 450.325 46.3044 449.995 47.2294C449.666 48.1319 449.103 48.9174 448.306 49.5859L448.067 49.7865C447.258 50.4653 446.375 50.8933 445.417 51.0707C444.461 51.2256 443.532 51.1273 442.632 50.776C441.731 50.4246 440.952 49.8567 440.294 49.0723L436.545 44.6047C435.856 43.7835 435.423 42.8939 435.245 41.9357C435.08 40.9673 435.167 40.0379 435.506 39.1477C435.835 38.2452 436.392 37.4648 437.176 36.8066L437.415 36.6061ZM438.678 38.3349C437.967 38.9314 437.567 39.6744 437.478 40.5638C437.378 41.4409 437.627 42.2349 438.223 42.9458L442.203 47.6892C442.8 48.4 443.544 48.7888 444.435 48.8554C445.316 48.9098 446.112 48.6387 446.823 48.0422C447.559 47.4251 447.965 46.6771 448.042 45.7979C448.118 44.9188 447.864 44.13 447.278 43.4313L443.297 38.688C442.711 37.9893 441.979 37.6016 441.099 37.5247C440.22 37.4478 439.413 37.7178 438.678 38.3349Z" fill="#182734"/>
<path d="M688.345 40.7816C689.595 41.8306 690.443 42.9711 690.889 44.2032C691.334 45.4352 691.439 46.6327 691.203 47.7957C690.967 48.9587 690.477 49.9829 689.734 50.8685C688.685 52.1186 687.574 52.9318 686.4 53.308C685.226 53.6842 683.727 53.8315 681.902 53.7499L673.736 53.3783C673.104 53.321 672.58 53.3105 672.165 53.3468C671.782 53.3803 671.546 53.4492 671.459 53.5534L680.939 61.5085L678.994 63.8266L666.727 53.533L667.251 52.9079C667.994 52.0223 668.909 51.355 669.996 50.906C671.115 50.4541 672.297 50.2622 673.542 50.3303L682.003 50.7726C683.228 50.7941 684.237 50.6496 685.03 50.3388C685.824 50.0281 686.512 49.5254 687.094 48.8309C687.531 48.31 687.809 47.7145 687.928 47.0445C688.06 46.3571 687.992 45.6633 687.721 44.9629C687.465 44.2452 686.982 43.5877 686.27 42.9903C685.54 42.3784 684.758 41.9883 683.923 41.82C683.105 41.6664 682.321 41.7188 681.572 41.9775C680.822 42.2361 680.185 42.678 679.66 43.3031L679.354 43.6677C679.238 43.8067 679.159 43.9181 679.118 44.0021L676.566 41.8604L676.758 41.5781L676.933 41.3697C677.778 40.3626 678.805 39.597 680.014 39.0729C681.238 38.5315 682.568 38.3749 684.003 38.6032C685.439 38.8316 686.886 39.5577 688.345 40.7816ZM702.645 69.5133L700.503 72.0658L693.914 66.5365L696.055 63.984L702.645 69.5133ZM727.261 73.4357C728.511 74.4847 729.359 75.6252 729.804 76.8573C730.25 78.0893 730.355 79.2868 730.119 80.4498C729.883 81.6128 729.393 82.637 728.65 83.5226C727.601 84.7728 726.489 85.586 725.316 85.9622C724.142 86.3384 722.642 86.4856 720.817 86.404L712.652 86.0324C712.019 85.9751 711.496 85.9646 711.08 86.0009C710.697 86.0344 710.462 86.1033 710.374 86.2075L719.855 94.1626L717.91 96.4807L705.643 86.1871L706.167 85.562C706.91 84.6764 707.825 84.0091 708.912 83.5601C710.031 83.1082 711.213 82.9163 712.458 82.9844L720.919 83.4267C722.143 83.4483 723.152 83.3037 723.946 82.9929C724.739 82.6822 725.427 82.1795 726.01 81.485C726.447 80.9641 726.725 80.3686 726.843 79.6986C726.976 79.0113 726.907 78.3174 726.637 77.617C726.381 76.8993 725.897 76.2418 725.185 75.6444C724.456 75.0325 723.674 74.6424 722.839 74.4742C722.021 74.3205 721.237 74.3729 720.487 74.6316C719.738 74.8903 719.1 75.3321 718.576 75.9572L718.27 76.3219C718.153 76.4608 718.075 76.5722 718.034 76.6563L715.481 74.5145L715.674 74.2322L715.849 74.0238C716.694 73.0167 717.721 72.2511 718.93 71.727C720.154 71.1856 721.483 71.029 722.919 71.2574C724.355 71.4857 725.802 72.2118 727.261 73.4357Z" fill="#182734"/>
<path d="M828.603 329.097L824.012 323.427L820.036 326.183C821.325 326.477 822.297 327.029 822.951 327.837C824.109 329.267 824.573 330.641 824.344 331.959C824.127 333.268 823.396 334.425 822.153 335.432C821.307 336.117 820.404 336.539 819.443 336.7C818.504 336.863 817.577 336.76 816.66 336.391C815.766 336.023 814.961 335.399 814.246 334.516C813.572 333.683 813.143 332.784 812.96 331.821C812.776 330.857 812.846 329.926 813.168 329.027C813.5 328.141 814.059 327.369 814.845 326.712L816.325 328.54C815.624 329.149 815.227 329.892 815.135 330.77C815.065 331.65 815.322 332.45 815.906 333.171C816.53 333.942 817.276 334.368 818.144 334.448C819.034 334.53 819.896 334.234 820.729 333.559C821.475 332.955 821.894 332.214 821.986 331.336C822.078 330.459 821.838 329.665 821.264 328.957C820.408 327.9 819.329 327.445 818.028 327.593L816.942 325.755L824.433 320.553L830.263 327.753L828.603 329.097ZM833.574 345.836L831.746 347.317L827.925 342.598L829.752 341.118L833.574 345.836ZM850.057 351.814C850.691 352.597 851.084 353.463 851.234 354.412C851.395 355.373 851.302 356.313 850.955 357.232C850.608 358.151 850.024 358.943 849.203 359.608L844.671 363.278C843.863 363.932 842.978 364.34 842.017 364.501C841.068 364.651 840.135 364.553 839.215 364.206C838.319 363.862 837.543 363.285 836.889 362.477L836.692 362.234C836.028 361.414 835.615 360.523 835.455 359.562C835.316 358.603 835.431 357.677 835.798 356.782C836.165 355.888 836.746 355.119 837.542 354.474L842.074 350.804C842.908 350.13 843.805 349.712 844.766 349.551C845.737 349.403 846.665 349.506 847.549 349.861C848.445 350.205 849.216 350.775 849.86 351.571L850.057 351.814ZM848.306 353.046C847.722 352.325 846.986 351.912 846.099 351.807C845.223 351.693 844.425 351.927 843.704 352.511L838.892 356.408C838.171 356.992 837.769 357.729 837.687 358.619C837.617 359.499 837.874 360.3 838.458 361.021C839.062 361.767 839.803 362.186 840.681 362.278C841.558 362.371 842.352 362.13 843.06 361.556L847.872 357.659C848.581 357.085 848.982 356.359 849.074 355.482C849.166 354.604 848.91 353.792 848.306 353.046Z" fill="#182734"/>
<path d="M473.677 385.476C474.277 385.382 474.829 385.407 475.334 385.554C475.839 385.701 476.252 385.952 476.573 386.308C476.893 386.654 477.091 387.071 477.168 387.56C477.252 388.085 477.187 388.54 476.973 388.923C476.768 389.296 476.443 389.631 475.998 389.928L476.019 389.967C476.571 390.05 477.03 390.266 477.397 390.614C477.772 390.951 478.007 391.424 478.104 392.033C478.185 392.549 478.115 393.033 477.894 393.483C477.672 393.934 477.326 394.315 476.856 394.626C476.385 394.937 475.841 395.141 475.224 395.239L475.058 395.265C474.053 395.424 473.212 395.302 472.533 394.899C471.863 394.486 471.459 393.841 471.32 392.965L471.302 392.855L472.658 392.64L472.682 392.792C472.762 393.299 472.994 393.659 473.377 393.873C473.759 394.077 474.268 394.129 474.904 394.028C475.559 393.924 476.045 393.715 476.364 393.4C476.69 393.074 476.811 392.644 476.727 392.109C476.566 391.095 475.776 390.7 474.356 390.925L473.319 391.09L473.122 389.845L474.187 389.676C474.749 389.587 475.18 389.387 475.481 389.075C475.79 388.761 475.907 388.365 475.831 387.885C475.756 387.415 475.529 387.083 475.148 386.888C474.777 386.691 474.31 386.638 473.748 386.727C473.223 386.81 472.819 387.006 472.537 387.315C472.255 387.625 472.151 388.01 472.224 388.471L472.244 388.595L470.889 388.81L470.849 388.561C470.769 388.054 470.832 387.586 471.038 387.156C471.252 386.716 471.577 386.353 472.013 386.066C472.459 385.778 472.972 385.588 473.553 385.496L473.677 385.476ZM486.58 388.777L486.794 390.132L483.296 390.686L483.081 389.331L486.58 388.777ZM494.407 382.193C494.988 382.101 495.54 382.156 496.063 382.356C496.595 382.555 497.043 382.877 497.406 383.32C497.769 383.763 497.999 384.289 498.096 384.897L498.628 388.258C498.723 388.857 498.67 389.423 498.471 389.955C498.271 390.478 497.949 390.921 497.505 391.284C497.07 391.637 496.552 391.861 495.953 391.956L495.773 391.984C495.165 392.08 494.595 392.029 494.062 391.83C493.538 391.62 493.103 391.292 492.758 390.846C492.414 390.399 492.195 389.881 492.101 389.291L491.569 385.931C491.471 385.314 491.522 384.739 491.721 384.206C491.929 383.672 492.252 383.234 492.689 382.891C493.125 382.538 493.637 382.315 494.227 382.222L494.407 382.193ZM494.519 383.437C493.984 383.522 493.561 383.773 493.249 384.191C492.936 384.6 492.822 385.071 492.906 385.606L493.471 389.173C493.556 389.708 493.811 390.126 494.237 390.427C494.661 390.719 495.141 390.823 495.675 390.738C496.228 390.65 496.656 390.398 496.959 389.982C497.261 389.565 497.371 389.094 497.288 388.569L496.723 385.002C496.64 384.476 496.39 384.062 495.973 383.759C495.557 383.457 495.072 383.349 494.519 383.437Z" fill="#182734"/>
<path d="M13.9217 429.236L18.1309 428.265L18.6114 430.346L7.90116 432.818L7.42067 430.737L11.6299 429.765L9.11409 418.868L4.85805 419.851L4.51252 418.354C6.32453 417.739 8.09034 416.781 9.80994 415.481L10.6986 415.276L13.9217 429.236ZM31.4901 419.515L32.0192 421.807L26.1029 423.173L25.5738 420.881L31.4901 419.515ZM48.862 421.17L53.0712 420.198L53.5517 422.279L42.8415 424.752L42.361 422.671L46.5702 421.699L44.0544 410.801L39.7983 411.784L39.4528 410.287C41.2648 409.672 43.0306 408.714 44.7502 407.414L45.6389 407.209L48.862 421.17Z" fill="#182734"/>
<path d="M298.456 513.441C299.219 513.674 299.86 514.069 300.379 514.625C300.91 515.184 301.265 515.843 301.444 516.599C301.623 517.356 301.591 518.134 301.346 518.934L299.997 523.349C299.756 524.136 299.356 524.796 298.796 525.326C298.24 525.845 297.584 526.194 296.827 526.374C296.086 526.544 295.322 526.509 294.534 526.269L294.298 526.196C293.499 525.952 292.833 525.55 292.303 524.99C291.787 524.422 291.452 523.763 291.297 523.014C291.142 522.265 291.183 521.502 291.42 520.727L292.77 516.312C293.018 515.5 293.422 514.829 293.982 514.298C294.554 513.771 295.208 513.428 295.946 513.269C296.687 513.098 297.445 513.132 298.22 513.369L298.456 513.441ZM297.853 515.025C297.15 514.81 296.484 514.865 295.855 515.189C295.23 515.501 294.81 516.008 294.595 516.711L293.162 521.399C292.947 522.101 293.01 522.763 293.35 523.383C293.694 523.992 294.217 524.403 294.92 524.618C295.646 524.84 296.318 524.788 296.935 524.46C297.552 524.132 297.966 523.622 298.177 522.932L299.61 518.244C299.821 517.554 299.763 516.9 299.435 516.283C299.107 515.666 298.58 515.247 297.853 515.025ZM312.14 525.115L311.596 526.895L306.999 525.49L307.543 523.709L312.14 525.115ZM325.604 521.741C326.368 521.974 327.008 522.369 327.527 522.925C328.058 523.484 328.413 524.143 328.592 524.899C328.772 525.656 328.739 526.434 328.495 527.234L327.145 531.649C326.904 532.436 326.504 533.096 325.944 533.627C325.388 534.145 324.732 534.494 323.975 534.674C323.234 534.844 322.47 534.809 321.683 534.569L321.446 534.496C320.647 534.252 319.982 533.85 319.451 533.29C318.936 532.722 318.601 532.064 318.446 531.314C318.291 530.565 318.332 529.802 318.569 529.027L319.919 524.612C320.167 523.8 320.571 523.129 321.13 522.598C321.702 522.071 322.357 521.728 323.094 521.569C323.835 521.398 324.593 521.432 325.368 521.669L325.604 521.741ZM325.001 523.325C324.298 523.11 323.633 523.165 323.004 523.489C322.378 523.801 321.958 524.308 321.744 525.011L320.31 529.699C320.096 530.401 320.158 531.063 320.498 531.683C320.842 532.292 321.365 532.703 322.068 532.918C322.795 533.14 323.467 533.088 324.083 532.76C324.7 532.432 325.114 531.922 325.325 531.232L326.758 526.544C326.97 525.854 326.911 525.2 326.583 524.583C326.255 523.966 325.728 523.547 325.001 523.325Z" fill="#182734"/>
<path d="M660.699 554.69L663.2 552.358L664.353 553.594L657.989 559.529L656.835 558.292L659.337 555.96L653.298 549.485L650.769 551.843L649.94 550.954C650.939 549.814 651.77 548.459 652.435 546.887L652.963 546.394L660.699 554.69ZM668.896 541.071L670.165 542.433L666.65 545.711L665.38 544.349L668.896 541.071ZM673.47 527.011C674.075 528.179 674.64 529.696 675.166 531.56C675.684 533.416 675.968 534.9 676.019 536.013L679.215 533.032L676.637 530.267C676.373 529.353 676.031 528.485 675.612 527.664L676.223 527.094L680.577 531.763L681.786 530.635L682.939 531.872L681.73 532.999L683.92 535.348L682.558 536.618L680.368 534.269L675.88 538.455L674.714 537.204C674.212 534.139 673.311 531.195 672.011 528.372L673.47 527.011Z" fill="#182734"/>
<path d="M92.8843 101.477L94.2021 104.436L92.7386 105.088L89.3855 97.5567L90.849 96.9051L92.1668 99.865L99.8296 96.4533L98.4971 93.4605L99.5495 92.992C100.262 94.238 101.22 95.4009 102.423 96.4809L102.701 97.1057L92.8843 101.477ZM102.555 113.02L100.944 113.737L99.0916 109.577L100.703 108.859L102.555 113.02ZM113.299 120.467C113.617 121.18 113.768 121.874 113.754 122.55C113.74 123.227 113.565 123.823 113.231 124.34C112.907 124.852 112.455 125.237 111.874 125.496C111.249 125.774 110.663 125.845 110.116 125.707C109.584 125.576 109.06 125.284 108.543 124.831L108.501 124.87C108.582 125.582 108.467 126.224 108.157 126.796C107.863 127.374 107.354 127.824 106.63 128.146C106.016 128.419 105.392 128.493 104.759 128.368C104.125 128.243 103.537 127.94 102.994 127.459C102.452 126.978 102.017 126.371 101.69 125.636L101.602 125.439C101.07 124.244 100.942 123.158 101.216 122.182C101.507 121.212 102.173 120.495 103.214 120.032L103.346 119.973L104.063 121.585L103.883 121.665C103.28 121.933 102.909 122.341 102.772 122.888C102.646 123.431 102.751 124.08 103.088 124.836C103.434 125.615 103.856 126.149 104.354 126.44C104.867 126.737 105.441 126.744 106.077 126.461C107.283 125.924 107.51 124.812 106.758 123.123L106.209 121.89L107.689 121.231L108.253 122.497C108.551 123.166 108.943 123.635 109.431 123.904C109.923 124.184 110.454 124.197 111.025 123.943C111.584 123.694 111.921 123.301 112.036 122.764C112.157 122.237 112.068 121.64 111.77 120.971C111.492 120.346 111.114 119.91 110.636 119.663C110.158 119.416 109.645 119.415 109.097 119.659L108.949 119.724L108.232 118.113L108.528 117.981C109.131 117.713 109.733 117.635 110.335 117.748C110.953 117.867 111.512 118.15 112.013 118.597C112.519 119.054 112.926 119.629 113.234 120.319L113.299 120.467Z" fill="#182734"/>
<path d="M808.366 151.443C808.947 151.62 809.432 151.886 809.821 152.239C810.211 152.592 810.472 152.999 810.605 153.459C810.74 153.911 810.735 154.373 810.591 154.846C810.435 155.355 810.177 155.735 809.818 155.986C809.47 156.231 809.031 156.389 808.501 156.462L808.502 156.506C808.962 156.822 809.28 157.217 809.457 157.691C809.646 158.159 809.651 158.687 809.471 159.276C809.318 159.776 809.043 160.18 808.646 160.488C808.249 160.796 807.771 160.987 807.212 161.06C806.653 161.133 806.075 161.078 805.477 160.895L805.316 160.846C804.343 160.549 803.64 160.07 803.207 159.411C802.786 158.745 802.705 157.988 802.965 157.141L802.997 157.033L804.309 157.435L804.264 157.582C804.114 158.073 804.165 158.498 804.416 158.858C804.67 159.209 805.105 159.478 805.72 159.667C806.354 159.86 806.883 159.886 807.308 159.742C807.744 159.592 808.041 159.259 808.199 158.741C808.5 157.759 807.962 157.058 806.588 156.638L805.584 156.331L805.952 155.126L806.983 155.441C807.527 155.608 808.003 155.616 808.41 155.467C808.825 155.321 809.104 155.016 809.246 154.552C809.385 154.097 809.326 153.698 809.07 153.356C808.822 153.017 808.426 152.764 807.882 152.598C807.373 152.442 806.924 152.442 806.535 152.596C806.147 152.75 805.884 153.051 805.747 153.497L805.711 153.617L804.399 153.216L804.472 152.975C804.622 152.484 804.884 152.091 805.258 151.795C805.643 151.493 806.094 151.309 806.612 151.243C807.139 151.18 807.684 151.234 808.246 151.406L808.366 151.443ZM818.516 160.065L818.115 161.377L814.728 160.342L815.129 159.03L818.516 160.065ZM828.37 157.559C828.951 157.736 829.436 158.002 829.825 158.355C830.215 158.708 830.476 159.115 830.609 159.575C830.744 160.027 830.739 160.489 830.595 160.962C830.439 161.471 830.181 161.85 829.822 162.102C829.473 162.346 829.035 162.505 828.505 162.577L828.506 162.622C828.966 162.938 829.284 163.333 829.461 163.807C829.65 164.274 829.655 164.803 829.474 165.392C829.322 165.892 829.047 166.296 828.65 166.604C828.253 166.912 827.775 167.103 827.216 167.176C826.657 167.249 826.079 167.194 825.481 167.011L825.32 166.962C824.347 166.664 823.644 166.186 823.211 165.527C822.79 164.861 822.709 164.104 822.969 163.256L823.001 163.149L824.313 163.55L824.268 163.698C824.118 164.189 824.169 164.614 824.42 164.974C824.674 165.325 825.109 165.594 825.724 165.783C826.358 165.976 826.887 166.001 827.312 165.858C827.748 165.708 828.045 165.375 828.203 164.857C828.504 163.875 827.966 163.174 826.592 162.754L825.588 162.447L825.956 161.242L826.987 161.557C827.531 161.723 828.007 161.732 828.414 161.583C828.829 161.437 829.108 161.132 829.25 160.668C829.389 160.213 829.33 159.814 829.074 159.472C828.826 159.133 828.43 158.88 827.886 158.713C827.377 158.558 826.928 158.557 826.539 158.712C826.15 158.866 825.888 159.167 825.751 159.613L825.715 159.733L824.403 159.332L824.476 159.091C824.626 158.6 824.888 158.207 825.262 157.911C825.647 157.609 826.098 157.425 826.616 157.359C827.143 157.296 827.688 157.35 828.25 157.522L828.37 157.559Z" fill="#182734"/>
<path d="M538.307 226.498L541.665 223.779L543.009 225.439L534.467 232.356L533.122 230.696L536.48 227.978L529.441 219.286L526.047 222.035L525.08 220.841C526.439 219.494 527.606 217.859 528.582 215.937L529.291 215.363L538.307 226.498ZM549.836 210.059L551.317 211.887L546.598 215.708L545.118 213.88L549.836 210.059ZM555.87 193.53C556.765 192.805 557.67 192.372 558.583 192.229C559.497 192.086 560.341 192.175 561.115 192.495C561.889 192.815 562.533 193.292 563.046 193.926C563.771 194.822 564.185 195.701 564.288 196.565C564.39 197.429 564.29 198.488 563.988 199.742L562.631 205.35C562.506 205.78 562.428 206.142 562.397 206.434C562.369 206.704 562.385 206.877 562.445 206.951L569.234 201.454L570.579 203.114L561.794 210.227L561.431 209.78C560.918 209.146 560.579 208.422 560.414 207.608C560.251 206.772 560.278 205.927 560.492 205.074L561.938 199.27C562.118 198.425 562.154 197.706 562.046 197.115C561.937 196.523 561.682 195.979 561.279 195.481C560.977 195.108 560.602 194.835 560.153 194.663C559.695 194.479 559.205 194.433 558.683 194.526C558.151 194.606 557.631 194.853 557.121 195.266C556.598 195.689 556.223 196.178 555.994 196.734C555.777 197.28 555.708 197.831 555.786 198.385C555.864 198.939 556.085 199.44 556.447 199.888L556.659 200.149C556.739 200.248 556.806 200.318 556.859 200.358L555.031 201.838L554.861 201.666L554.74 201.517C554.156 200.796 553.764 199.981 553.564 199.073C553.353 198.152 553.424 197.209 553.776 196.245C554.127 195.281 554.825 194.376 555.87 193.53Z" fill="#182734"/>
<path d="M208.421 221.259C209.353 221.936 210.006 222.697 210.38 223.543C210.755 224.388 210.887 225.226 210.778 226.057C210.669 226.887 210.375 227.633 209.896 228.293C209.218 229.225 208.476 229.852 207.668 230.175C206.86 230.498 205.811 230.675 204.522 230.708L198.754 230.848C198.306 230.839 197.936 230.857 197.646 230.903C197.378 230.946 197.215 231.006 197.159 231.083L204.226 236.218L202.971 237.946L193.826 231.302L194.164 230.836C194.644 230.176 195.255 229.661 195.999 229.291C196.764 228.918 197.587 228.725 198.467 228.711L204.447 228.606C205.31 228.561 206.014 228.409 206.557 228.152C207.1 227.894 207.56 227.506 207.936 226.988C208.218 226.6 208.385 226.167 208.435 225.689C208.495 225.199 208.412 224.713 208.187 224.234C207.972 223.741 207.599 223.302 207.068 222.916C206.524 222.521 205.954 222.285 205.358 222.208C204.774 222.14 204.225 222.215 203.71 222.434C203.195 222.653 202.768 222.996 202.429 223.462L202.232 223.734C202.157 223.837 202.107 223.919 202.082 223.981L200.179 222.598L200.301 222.39L200.414 222.235C200.959 221.484 201.645 220.894 202.47 220.466C203.305 220.024 204.234 219.848 205.256 219.938C206.278 220.029 207.333 220.469 208.421 221.259ZM219.905 240.786L218.522 242.689L213.61 239.12L214.992 237.217L219.905 240.786ZM230.053 254.982L233.548 257.522L232.292 259.25L223.4 252.789L224.655 251.061L228.15 253.6L234.724 244.552L231.19 241.984L232.093 240.742C233.746 241.706 235.628 242.41 237.737 242.855L238.475 243.391L230.053 254.982Z" fill="#182734"/>
<line x1="700.141" y1="401.48" x2="632.141" y2="421.48" stroke="#182734"/>
<line x1="214.634" y1="410.659" x2="242.634" y2="380.659" stroke="#182734"/>
<line x1="831.54" y1="523.805" x2="859.54" y2="457.805" stroke="#182734"/>
<line x1="206.86" y1="26.52" x2="278.86" y2="5.52" stroke="#182734"/>
<line x1="739.475" y1="172.156" x2="714.475" y2="248.156" stroke="#182734"/>
<line x1="380.304" y1="232.603" x2="418.628" y2="261.978" stroke="#182734"/>
<line x1="1.28116" y1="238.587" x2="51.2812" y2="272.587" stroke="#182734"/>
</svg>
