<svg width="915" height="614" viewBox="0 0 915 614" fill="none" xmlns="http://www.w3.org/2000/svg">
<path d="M409.771 59.6098C410.653 58.8693 411.55 58.4196 412.461 58.2608C413.372 58.1021 414.218 58.176 414.997 58.4827C415.777 58.7894 416.429 59.2553 416.953 59.8804C417.694 60.7629 418.123 61.6351 418.24 62.4972C418.358 63.3593 418.277 64.4197 417.996 65.6785L416.737 71.3092C416.619 71.7419 416.548 72.1047 416.522 72.3978C416.499 72.6683 416.518 72.8403 416.579 72.9138L423.272 67.2984L424.645 68.9347L415.985 76.2008L415.615 75.7595C415.09 75.1344 414.739 74.4166 414.56 73.6059C414.383 72.7728 414.394 71.9277 414.594 71.0707L415.939 65.243C416.104 64.3943 416.127 63.6751 416.008 63.0856C415.89 62.496 415.624 61.956 415.213 61.4658C414.905 61.0981 414.525 60.832 414.073 60.6676C413.612 60.4909 413.121 60.4537 412.601 60.5558C412.071 60.6457 411.554 60.9015 411.052 61.3232C410.537 61.7551 410.17 62.2511 409.951 62.8111C409.744 63.3608 409.684 63.9121 409.772 64.4649C409.86 65.0178 410.089 65.5148 410.459 65.956L410.675 66.2134C410.757 66.3115 410.825 66.3799 410.879 66.4186L409.077 67.9305L408.904 67.762L408.781 67.615C408.184 66.9041 407.778 66.0962 407.562 65.1915C407.335 64.2745 407.39 63.3309 407.724 62.3608C408.059 61.3907 408.741 60.4737 409.771 59.6098ZM431.497 53.1909L433.009 54.9926L428.357 58.8956L426.845 57.0939L431.497 53.1909ZM437.186 36.6061C437.958 35.9581 438.817 35.5506 439.763 35.3835C440.721 35.2062 441.662 35.2829 442.587 35.6136C443.512 35.9444 444.314 36.5143 444.993 37.3232L448.742 41.7908C449.41 42.5875 449.833 43.4649 450.011 44.423C450.178 45.3689 450.096 46.3044 449.765 47.2294C449.436 48.1319 448.874 48.9174 448.077 49.5859L447.838 49.7865C447.029 50.4653 446.145 50.8933 445.187 51.0707C444.231 51.2256 443.303 51.1273 442.402 50.776C441.502 50.4246 440.722 49.8567 440.064 49.0723L436.315 44.6047C435.626 43.7835 435.193 42.8939 435.016 41.9357C434.851 40.9673 434.938 40.0379 435.277 39.1477C435.605 38.2452 436.162 37.4648 436.947 36.8066L437.186 36.6061ZM438.448 38.3349C437.737 38.9314 437.337 39.6744 437.248 40.5638C437.149 41.4409 437.397 42.2349 437.994 42.9458L441.974 47.6892C442.57 48.4 443.314 48.7888 444.206 48.8554C445.087 48.9098 445.883 48.6387 446.594 48.0422C447.329 47.4251 447.735 46.6771 447.812 45.7979C447.889 44.9188 447.634 44.13 447.048 43.4313L443.068 38.688C442.482 37.9893 441.749 37.6016 440.87 37.5247C439.991 37.4478 439.184 37.7178 438.448 38.3349Z" fill="#1B2C3B"/>
<path d="M688.115 40.7816C689.366 41.8306 690.214 42.9711 690.659 44.2032C691.105 45.4352 691.21 46.6327 690.974 47.7957C690.737 48.9587 690.248 49.9829 689.505 50.8685C688.456 52.1186 687.344 52.9318 686.171 53.308C684.997 53.6842 683.497 53.8315 681.672 53.7499L673.507 53.3783C672.874 53.321 672.35 53.3105 671.935 53.3468C671.552 53.3803 671.317 53.4492 671.229 53.5534L680.71 61.5085L678.765 63.8266L666.497 53.533L667.022 52.9079C667.765 52.0223 668.68 51.355 669.767 50.906C670.886 50.4541 672.068 50.2622 673.312 50.3303L681.774 50.7726C682.998 50.7941 684.007 50.6496 684.801 50.3388C685.594 50.0281 686.282 49.5254 686.865 48.8309C687.302 48.31 687.58 47.7145 687.698 47.0445C687.831 46.3571 687.762 45.6633 687.492 44.9629C687.236 44.2452 686.752 43.5877 686.04 42.9903C685.311 42.3784 684.529 41.9883 683.693 41.82C682.875 41.6664 682.092 41.7188 681.342 41.9775C680.592 42.2361 679.955 42.678 679.431 43.3031L679.125 43.6677C679.008 43.8067 678.93 43.9181 678.889 44.0021L676.336 41.8604L676.529 41.5781L676.704 41.3697C677.549 40.3626 678.576 39.597 679.785 39.0729C681.008 38.5315 682.338 38.3749 683.774 38.6032C685.21 38.8316 686.657 39.5577 688.115 40.7816ZM702.415 69.5133L700.274 72.0658L693.684 66.5365L695.826 63.984L702.415 69.5133ZM727.031 73.4357C728.281 74.4847 729.129 75.6252 729.575 76.8573C730.021 78.0893 730.125 79.2868 729.889 80.4498C729.653 81.6128 729.163 82.637 728.42 83.5226C727.371 84.7728 726.26 85.586 725.086 85.9622C723.912 86.3384 722.413 86.4856 720.588 86.404L712.422 86.0324C711.79 85.9751 711.266 85.9646 710.851 86.0009C710.468 86.0344 710.232 86.1033 710.145 86.2075L719.626 94.1626L717.68 96.4807L705.413 86.1871L705.938 85.562C706.681 84.6764 707.596 84.0091 708.683 83.5601C709.801 83.1082 710.983 82.9163 712.228 82.9844L720.689 83.4267C721.914 83.4483 722.923 83.3037 723.716 82.9929C724.51 82.6822 725.198 82.1795 725.781 81.485C726.218 80.9641 726.495 80.3686 726.614 79.6986C726.747 79.0113 726.678 78.3174 726.407 77.617C726.152 76.8993 725.668 76.2418 724.956 75.6444C724.227 75.0325 723.444 74.6424 722.609 74.4742C721.791 74.3205 721.007 74.3729 720.258 74.6316C719.508 74.8903 718.871 75.3321 718.346 75.9572L718.041 76.3219C717.924 76.4608 717.845 76.5722 717.804 76.6563L715.252 74.5145L715.444 74.2322L715.619 74.0238C716.464 73.0167 717.491 72.2511 718.7 71.727C719.924 71.1856 721.254 71.029 722.69 71.2574C724.125 71.4857 725.573 72.2118 727.031 73.4357Z" fill="#1B2C3B"/>
<path d="M828.374 329.097L823.782 323.427L819.807 326.183C821.096 326.477 822.067 327.029 822.722 327.837C823.88 329.267 824.344 330.641 824.114 331.959C823.897 333.268 823.167 334.425 821.923 335.432C821.078 336.117 820.175 336.539 819.213 336.7C818.275 336.863 817.347 336.76 816.43 336.391C815.536 336.023 814.732 335.399 814.017 334.516C813.342 333.683 812.913 332.784 812.73 331.821C812.547 330.857 812.616 329.926 812.938 329.027C813.27 328.141 813.829 327.369 814.615 326.712L816.095 328.54C815.394 329.149 814.998 329.892 814.905 330.77C814.836 331.65 815.093 332.45 815.677 333.171C816.301 333.942 817.047 334.368 817.914 334.448C818.805 334.53 819.666 334.234 820.499 333.559C821.245 332.955 821.664 332.214 821.757 331.336C821.849 330.459 821.608 329.665 821.034 328.957C820.178 327.9 819.1 327.445 817.799 327.593L816.712 325.755L824.204 320.553L830.034 327.753L828.374 329.097ZM833.344 345.836L831.516 347.317L827.695 342.598L829.523 341.118L833.344 345.836ZM849.827 351.814C850.462 352.597 850.854 353.463 851.005 354.412C851.165 355.373 851.072 356.313 850.725 357.232C850.378 358.151 849.795 358.943 848.974 359.608L844.442 363.278C843.633 363.932 842.749 364.34 841.788 364.501C840.839 364.651 839.905 364.553 838.986 364.206C838.089 363.862 837.314 363.285 836.659 362.477L836.463 362.234C835.798 361.414 835.386 360.523 835.225 359.562C835.087 358.603 835.201 357.677 835.568 356.782C835.935 355.888 836.517 355.119 837.313 354.474L841.845 350.804C842.678 350.13 843.575 349.712 844.536 349.551C845.507 349.403 846.435 349.506 847.319 349.861C848.216 350.205 848.986 350.775 849.631 351.571L849.827 351.814ZM848.077 353.046C847.493 352.325 846.757 351.912 845.869 351.807C844.994 351.693 844.196 351.927 843.474 352.511L838.662 356.408C837.941 356.992 837.539 357.729 837.457 358.619C837.387 359.499 837.645 360.3 838.229 361.021C838.833 361.767 839.574 362.186 840.451 362.278C841.329 362.371 842.122 362.13 842.831 361.556L847.643 357.659C848.352 357.085 848.752 356.359 848.844 355.482C848.937 354.604 848.681 353.792 848.077 353.046Z" fill="#1B2C3B"/>
<path d="M473.448 385.476C474.047 385.382 474.599 385.407 475.105 385.554C475.61 385.701 476.023 385.952 476.344 386.308C476.663 386.654 476.862 387.071 476.939 387.56C477.022 388.085 476.957 388.54 476.744 388.923C476.538 389.296 476.213 389.631 475.769 389.928L475.789 389.967C476.341 390.05 476.8 390.266 477.167 390.614C477.542 390.951 477.778 391.424 477.874 392.033C477.956 392.549 477.886 393.033 477.664 393.483C477.443 393.934 477.097 394.315 476.626 394.626C476.156 394.937 475.612 395.141 474.994 395.239L474.828 395.265C473.823 395.424 472.982 395.302 472.304 394.899C471.634 394.486 471.229 393.841 471.091 392.965L471.073 392.855L472.428 392.64L472.452 392.792C472.532 393.299 472.764 393.659 473.148 393.873C473.53 394.077 474.039 394.129 474.675 394.028C475.329 393.924 475.816 393.715 476.135 393.4C476.461 393.074 476.582 392.644 476.497 392.109C476.337 391.095 475.546 390.7 474.127 390.925L473.09 391.09L472.893 389.845L473.957 389.676C474.52 389.587 474.951 389.387 475.251 389.075C475.56 388.761 475.677 388.365 475.601 387.885C475.527 387.415 475.299 387.083 474.919 386.888C474.548 386.691 474.081 386.638 473.518 386.727C472.993 386.81 472.589 387.006 472.308 387.315C472.026 387.625 471.921 388.01 471.995 388.471L472.014 388.595L470.659 388.81L470.62 388.561C470.539 388.054 470.602 387.586 470.808 387.156C471.022 386.716 471.347 386.353 471.784 386.066C472.23 385.778 472.743 385.588 473.324 385.496L473.448 385.476ZM486.35 388.777L486.565 390.132L483.067 390.686L482.852 389.331L486.35 388.777ZM494.178 382.193C494.758 382.101 495.31 382.156 495.833 382.356C496.366 382.555 496.814 382.877 497.177 383.32C497.54 383.763 497.77 384.289 497.866 384.897L498.398 388.258C498.493 388.857 498.441 389.423 498.242 389.955C498.041 390.478 497.719 390.921 497.276 391.284C496.84 391.637 496.323 391.861 495.724 391.956L495.544 391.984C494.936 392.08 494.365 392.029 493.833 391.83C493.308 391.62 492.874 391.292 492.529 390.846C492.184 390.399 491.965 389.881 491.872 389.291L491.339 385.931C491.242 385.314 491.292 384.739 491.491 384.206C491.7 383.672 492.022 383.234 492.46 382.891C492.895 382.538 493.408 382.315 493.998 382.222L494.178 382.193ZM494.29 383.437C493.755 383.522 493.332 383.773 493.02 384.191C492.707 384.6 492.592 385.071 492.677 385.606L493.242 389.173C493.327 389.708 493.582 390.126 494.008 390.427C494.432 390.719 494.911 390.823 495.446 390.738C495.999 390.65 496.427 390.398 496.729 389.982C497.032 389.565 497.142 389.094 497.058 388.569L496.493 385.002C496.41 384.476 496.16 384.062 495.744 383.759C495.327 383.457 494.843 383.349 494.29 383.437Z" fill="#1B2C3B"/>
<path d="M13.6922 429.236L17.9015 428.265L18.3819 430.346L7.67167 432.818L7.19118 430.737L11.4005 429.765L8.8846 418.868L4.62855 419.851L4.28303 418.354C6.09504 417.739 7.86085 416.781 9.58045 415.481L10.4691 415.276L13.6922 429.236ZM31.2607 419.515L31.7897 421.807L25.8734 423.173L25.3443 420.881L31.2607 419.515ZM48.6325 421.17L52.8418 420.198L53.3222 422.279L42.612 424.752L42.1315 422.671L46.3408 421.699L43.8249 410.801L39.5689 411.784L39.2233 410.287C41.0353 409.672 42.8011 408.714 44.5207 407.414L45.4094 407.209L48.6325 421.17Z" fill="#1B2C3B"/>
<path d="M298.227 513.441C298.99 513.674 299.631 514.069 300.15 514.625C300.68 515.184 301.036 515.843 301.215 516.599C301.394 517.356 301.361 518.134 301.117 518.934L299.767 523.349C299.526 524.136 299.126 524.796 298.566 525.326C298.011 525.845 297.354 526.194 296.597 526.374C295.856 526.544 295.092 526.509 294.305 526.269L294.069 526.196C293.269 525.952 292.604 525.55 292.073 524.99C291.558 524.422 291.223 523.763 291.068 523.014C290.913 522.265 290.954 521.502 291.191 520.727L292.541 516.312C292.789 515.5 293.193 514.829 293.753 514.298C294.324 513.771 294.979 513.428 295.716 513.269C296.457 513.098 297.215 513.132 297.99 513.369L298.227 513.441ZM297.623 515.025C296.921 514.81 296.255 514.865 295.626 515.189C295.001 515.501 294.581 516.008 294.366 516.711L292.933 521.399C292.718 522.101 292.781 522.763 293.121 523.383C293.464 523.992 293.988 524.403 294.69 524.618C295.417 524.84 296.089 524.788 296.706 524.46C297.323 524.132 297.736 523.622 297.948 522.932L299.381 518.244C299.592 517.554 299.533 516.9 299.205 516.283C298.877 515.666 298.35 515.247 297.623 515.025ZM311.911 525.115L311.366 526.895L306.769 525.49L307.314 523.709L311.911 525.115ZM325.375 521.741C326.138 521.974 326.779 522.369 327.298 522.925C327.829 523.484 328.184 524.143 328.363 524.899C328.542 525.656 328.51 526.434 328.265 527.234L326.915 531.649C326.675 532.436 326.274 533.096 325.715 533.627C325.159 534.145 324.502 534.494 323.746 534.674C323.005 534.844 322.24 534.809 321.453 534.569L321.217 534.496C320.417 534.252 319.752 533.85 319.221 533.29C318.706 532.722 318.371 532.064 318.216 531.314C318.061 530.565 318.102 529.802 318.339 529.027L319.689 524.612C319.937 523.8 320.341 523.129 320.901 522.598C321.473 522.071 322.127 521.728 322.864 521.569C323.605 521.398 324.363 521.432 325.139 521.669L325.375 521.741ZM324.771 523.325C324.069 523.11 323.403 523.165 322.774 523.489C322.149 523.801 321.729 524.308 321.514 525.011L320.081 529.699C319.866 530.401 319.929 531.063 320.269 531.683C320.613 532.292 321.136 532.703 321.838 532.918C322.565 533.14 323.237 533.088 323.854 532.76C324.471 532.432 324.885 531.922 325.096 531.232L326.529 526.544C326.74 525.854 326.682 525.2 326.354 524.583C326.026 523.966 325.498 523.547 324.771 523.325Z" fill="#1B2C3B"/>
<path d="M660.469 554.69L662.97 552.358L664.124 553.594L657.759 559.529L656.606 558.292L659.107 555.96L653.069 549.485L650.54 551.843L649.71 550.954C650.709 549.814 651.541 548.459 652.205 546.887L652.733 546.394L660.469 554.69ZM668.666 541.071L669.936 542.433L666.42 545.711L665.15 544.349L668.666 541.071ZM673.241 527.011C673.845 528.179 674.411 529.696 674.937 531.56C675.455 533.416 675.739 534.9 675.79 536.013L678.986 533.032L676.407 530.267C676.143 529.353 675.802 528.485 675.382 527.664L675.994 527.094L680.347 531.763L681.556 530.635L682.71 531.872L681.501 532.999L683.691 535.348L682.329 536.618L680.139 534.269L675.651 538.455L674.484 537.204C673.982 534.139 673.081 531.195 671.782 528.372L673.241 527.011Z" fill="#1B2C3B"/>
<path d="M92.6548 101.477L93.9726 104.436L92.5091 105.088L89.156 97.5567L90.6195 96.9051L91.9373 99.865L99.6001 96.4533L98.2676 93.4605L99.32 92.992C100.032 94.238 100.99 95.4009 102.194 96.4809L102.472 97.1057L92.6548 101.477ZM102.326 113.02L100.714 113.737L98.8621 109.577L100.474 108.859L102.326 113.02ZM113.07 120.467C113.387 121.18 113.539 121.874 113.525 122.55C113.51 123.227 113.336 123.823 113.001 124.34C112.677 124.852 112.225 125.237 111.644 125.496C111.019 125.774 110.433 125.845 109.886 125.707C109.355 125.576 108.831 125.284 108.314 124.831L108.272 124.87C108.353 125.582 108.238 126.224 107.928 126.796C107.633 127.374 107.124 127.824 106.401 128.146C105.787 128.419 105.163 128.493 104.529 128.368C103.896 128.243 103.307 127.94 102.765 127.459C102.222 126.978 101.788 126.371 101.461 125.636L101.373 125.439C100.841 124.244 100.712 123.158 100.987 122.182C101.277 121.212 101.943 120.495 102.985 120.032L103.116 119.973L103.834 121.585L103.653 121.665C103.05 121.933 102.68 122.341 102.543 122.888C102.416 123.431 102.521 124.08 102.858 124.836C103.205 125.615 103.627 126.149 104.124 126.44C104.637 126.737 105.212 126.744 105.847 126.461C107.053 125.924 107.28 124.812 106.529 123.123L105.98 121.89L107.46 121.231L108.023 122.497C108.321 123.166 108.714 123.635 109.201 123.904C109.694 124.184 110.225 124.197 110.795 123.943C111.354 123.694 111.691 123.301 111.807 122.764C111.927 122.237 111.838 121.64 111.541 120.971C111.262 120.346 110.884 119.91 110.407 119.663C109.929 119.416 109.416 119.415 108.868 119.659L108.72 119.724L108.002 118.113L108.298 117.981C108.901 117.713 109.504 117.635 110.106 117.748C110.723 117.867 111.283 118.15 111.784 118.597C112.29 119.054 112.697 119.629 113.004 120.319L113.07 120.467Z" fill="#1B2C3B"/>
<path d="M808.137 151.443C808.717 151.62 809.202 151.886 809.592 152.239C809.981 152.592 810.243 152.999 810.375 153.459C810.511 153.911 810.506 154.373 810.361 154.846C810.206 155.355 809.948 155.735 809.588 155.986C809.24 156.231 808.801 156.389 808.272 156.462L808.273 156.506C808.732 156.822 809.051 157.217 809.228 157.691C809.417 158.159 809.421 158.687 809.241 159.276C809.088 159.776 808.813 160.18 808.417 160.488C808.02 160.796 807.542 160.987 806.983 161.06C806.424 161.133 805.845 161.078 805.247 160.895L805.087 160.846C804.114 160.549 803.411 160.07 802.978 159.411C802.557 158.745 802.476 157.988 802.735 157.141L802.768 157.033L804.08 157.435L804.035 157.582C803.885 158.073 803.935 158.498 804.186 158.858C804.44 159.209 804.875 159.478 805.491 159.667C806.125 159.86 806.654 159.886 807.078 159.742C807.514 159.592 807.812 159.259 807.97 158.741C808.27 157.759 807.733 157.058 806.358 156.638L805.354 156.331L805.723 155.126L806.754 155.441C807.298 155.608 807.774 155.616 808.18 155.467C808.596 155.321 808.875 155.016 809.016 154.552C809.156 154.097 809.097 153.698 808.84 153.356C808.593 153.017 808.197 152.764 807.652 152.598C807.143 152.442 806.695 152.442 806.306 152.596C805.917 152.75 805.654 153.051 805.518 153.497L805.481 153.617L804.169 153.216L804.243 152.975C804.393 152.484 804.655 152.091 805.028 151.795C805.413 151.493 805.865 151.309 806.383 151.243C806.91 151.18 807.454 151.234 808.016 151.406L808.137 151.443ZM818.287 160.065L817.886 161.377L814.498 160.342L814.9 159.03L818.287 160.065ZM828.141 157.559C828.721 157.736 829.206 158.002 829.596 158.355C829.985 158.708 830.247 159.115 830.379 159.575C830.514 160.027 830.51 160.489 830.365 160.962C830.21 161.471 829.952 161.85 829.592 162.102C829.244 162.346 828.805 162.505 828.275 162.577L828.277 162.622C828.736 162.938 829.055 163.333 829.232 163.807C829.421 164.274 829.425 164.803 829.245 165.392C829.092 165.892 828.817 166.296 828.421 166.604C828.024 166.912 827.546 167.103 826.987 167.176C826.428 167.249 825.849 167.194 825.251 167.011L825.09 166.962C824.118 166.664 823.415 166.186 822.982 165.527C822.561 164.861 822.48 164.104 822.739 163.256L822.772 163.149L824.084 163.55L824.039 163.698C823.889 164.189 823.939 164.614 824.19 164.974C824.444 165.325 824.879 165.594 825.495 165.783C826.129 165.976 826.658 166.001 827.082 165.858C827.518 165.708 827.816 165.375 827.974 164.857C828.274 163.875 827.737 163.174 826.362 162.754L825.358 162.447L825.727 161.242L826.758 161.557C827.302 161.723 827.778 161.732 828.184 161.583C828.6 161.437 828.878 161.132 829.02 160.668C829.16 160.213 829.101 159.814 828.844 159.472C828.597 159.133 828.201 158.88 827.656 158.713C827.147 158.558 826.699 158.557 826.31 158.712C825.921 158.866 825.658 159.167 825.522 159.613L825.485 159.733L824.173 159.332L824.247 159.091C824.397 158.6 824.659 158.207 825.032 157.911C825.417 157.609 825.869 157.425 826.387 157.359C826.914 157.296 827.458 157.35 828.02 157.522L828.141 157.559Z" fill="#1B2C3B"/>
<path d="M538.078 226.498L541.435 223.779L542.779 225.439L534.237 232.356L532.893 230.696L536.25 227.978L529.212 219.286L525.817 222.035L524.851 220.841C526.209 219.494 527.377 217.859 528.352 215.937L529.061 215.363L538.078 226.498ZM549.607 210.059L551.087 211.887L546.368 215.708L544.888 213.88L549.607 210.059ZM555.64 193.53C556.536 192.805 557.44 192.372 558.354 192.229C559.267 192.086 560.111 192.175 560.885 192.495C561.659 192.815 562.303 193.292 562.817 193.926C563.542 194.822 563.955 195.701 564.058 196.565C564.161 197.429 564.061 198.488 563.758 199.742L562.401 205.35C562.276 205.78 562.198 206.142 562.168 206.434C562.139 206.704 562.155 206.877 562.216 206.951L569.005 201.454L570.349 203.114L561.564 210.227L561.202 209.78C560.688 209.146 560.349 208.422 560.184 207.608C560.022 206.772 560.048 205.927 560.263 205.074L561.709 199.27C561.889 198.425 561.925 197.706 561.816 197.115C561.708 196.523 561.452 195.979 561.049 195.481C560.747 195.108 560.372 194.835 559.924 194.663C559.465 194.479 558.975 194.433 558.454 194.526C557.922 194.606 557.401 194.853 556.891 195.266C556.369 195.689 555.993 196.178 555.764 196.734C555.548 197.28 555.478 197.831 555.557 198.385C555.635 198.939 555.855 199.44 556.218 199.888L556.429 200.149C556.51 200.248 556.576 200.318 556.629 200.358L554.801 201.838L554.632 201.666L554.511 201.517C553.927 200.796 553.535 199.981 553.334 199.073C553.124 198.152 553.195 197.209 553.546 196.245C553.898 195.281 554.596 194.376 555.64 193.53Z" fill="#1B2C3B"/>
<path d="M208.191 221.259C209.123 221.936 209.776 222.697 210.151 223.543C210.525 224.388 210.658 225.226 210.549 226.057C210.44 226.887 210.146 227.633 209.666 228.293C208.989 229.225 208.246 229.852 207.438 230.175C206.63 230.498 205.582 230.675 204.292 230.708L198.524 230.848C198.076 230.839 197.707 230.857 197.416 230.903C197.148 230.946 196.986 231.006 196.929 231.083L203.997 236.218L202.741 237.946L193.596 231.302L193.935 230.836C194.414 230.176 195.026 229.661 195.769 229.291C196.535 228.918 197.358 228.725 198.237 228.711L204.217 228.606C205.081 228.561 205.784 228.409 206.328 228.152C206.871 227.894 207.331 227.506 207.707 226.988C207.989 226.6 208.155 226.167 208.206 225.689C208.265 225.199 208.183 224.713 207.958 224.234C207.742 223.741 207.369 223.302 206.838 222.916C206.295 222.521 205.725 222.285 205.128 222.208C204.545 222.14 203.996 222.215 203.48 222.434C202.965 222.653 202.538 222.996 202.2 223.462L202.002 223.734C201.927 223.837 201.877 223.919 201.852 223.981L199.95 222.598L200.071 222.39L200.184 222.235C200.73 221.484 201.415 220.894 202.241 220.466C203.076 220.024 204.004 219.848 205.027 219.938C206.049 220.029 207.104 220.469 208.191 221.259ZM219.675 240.786L218.293 242.689L213.38 239.12L214.763 237.217L219.675 240.786ZM229.823 254.982L233.318 257.522L232.063 259.25L223.17 252.789L224.426 251.061L227.921 253.6L234.494 244.552L230.961 241.984L231.863 240.742C233.517 241.706 235.398 242.41 237.507 242.855L238.245 243.391L229.823 254.982Z" fill="#1B2C3B"/>
<line x1="699.912" y1="401.48" x2="631.912" y2="421.48" stroke="#1B2C3B"/>
<line x1="214.405" y1="410.659" x2="242.405" y2="380.659" stroke="#1B2C3B"/>
<line x1="831.31" y1="523.805" x2="859.31" y2="457.805" stroke="#1B2C3B"/>
<line x1="206.631" y1="26.52" x2="278.63" y2="5.52" stroke="#1B2C3B"/>
<line x1="739.245" y1="172.156" x2="714.245" y2="248.156" stroke="#1B2C3B"/>
<line x1="380.075" y1="232.603" x2="418.398" y2="261.978" stroke="#1B2C3B"/>
<line x1="1.05166" y1="238.587" x2="51.0517" y2="272.587" stroke="#1B2C3B"/>
</svg>
