<svg xmlns="http://www.w3.org/2000/svg" xmlns:xlink="http://www.w3.org/1999/xlink" data-name="Layer 1" viewBox="0 0 100 125" x="0px" y="0px"><defs><style>.cls-1{fill:none;}.cls-2{clip-path:url(#a);}</style><clipPath id="a"><circle class="cls-1" cx="51.48" cy="49.53" r="45.71"/></clipPath></defs><title>lined</title><g class="cls-2"><path d="M27.66,17h0a.76.76,0,0,1-.73-.79c0-.24.19-5.93,1.69-8.81a.76.76,0,0,1,1-.32.75.75,0,0,1,.32,1c-1.33,2.57-1.52,8.1-1.52,8.16A.76.76,0,0,1,27.66,17Z"/><path d="M8.18,33.09a.76.76,0,0,1-.37-1.43,23.89,23.89,0,0,1,6.42-2.1.76.76,0,0,1,.26,1.5A22.76,22.76,0,0,0,8.55,33,.69.69,0,0,1,8.18,33.09Z"/><path d="M42.39,21.27a.76.76,0,0,1-.42-1.4c.29-.19,7.09-4.57,20.72-6.31a.76.76,0,0,1,.85.66.77.77,0,0,1-.66.86c-13.28,1.69-20,6-20.07,6.06A.74.74,0,0,1,42.39,21.27Z"/><path d="M76.6,48.55l-.15,0a.76.76,0,0,1-.59-.9c2.78-13.27,2.3-19.94,2.29-20a.76.76,0,0,1,1.52-.12c0,.27.52,6.92-2.32,20.44A.77.77,0,0,1,76.6,48.55Z"/><path d="M56.61,54.71a.73.73,0,0,1-.5-.19C44.25,44.1,37.85,38.81,37.79,38.76a.75.75,0,0,1-.1-1.07.76.76,0,0,1,1.07-.11c.06.06,6.48,5.36,18.35,15.8a.75.75,0,0,1,.07,1.07A.76.76,0,0,1,56.61,54.71Z"/><path d="M18.71,65.38a.76.76,0,0,1-.76-.71,61.18,61.18,0,0,1,2.54-20.28.76.76,0,1,1,1.45.47,60.79,60.79,0,0,0-2.47,19.71.76.76,0,0,1-.71.81Z"/><path d="M33.84,80.46a.76.76,0,0,1-.19-1.5c.12,0,12.06-3.08,20.17-6.89a.76.76,0,0,1,1,.37.75.75,0,0,1-.37,1c-8.23,3.88-20.31,7-20.43,7Z"/><path d="M70,93a.65.65,0,0,1-.27,0,.76.76,0,0,1-.44-1,33.11,33.11,0,0,0,2-11.36.76.76,0,0,1,.74-.78h0a.77.77,0,0,1,.76.74,34.39,34.39,0,0,1-2.12,11.94A.74.74,0,0,1,70,93Z"/><path d="M53.86,96.57h-.14c-9.45-1.79-19-7.47-19.42-7.71a.76.76,0,0,1,.78-1.31c.1.06,9.75,5.79,18.92,7.52a.77.77,0,0,1,.61.89A.76.76,0,0,1,53.86,96.57Z"/><path d="M85.22,64.92h-.5a.76.76,0,1,1,.12-1.52s4.45.28,11.21-2.86a.77.77,0,0,1,.65,1.39C90.78,64.66,86.6,64.92,85.22,64.92Z"/><path d="M97.4,45.4a.76.76,0,0,1-.74-.56A40.22,40.22,0,0,0,86.58,27.28a.76.76,0,0,1,0-1.07.77.77,0,0,1,1.08-.05A41.16,41.16,0,0,1,98.14,44.44a.78.78,0,0,1-.54.94Z"/><path d="M78.46,28.75l-.32-.4a53.44,53.44,0,0,0-16.49-13L60.89,15l.22-.8s1-3.61,2-8.73l.22-1.07,1,.3A47.11,47.11,0,0,1,88.49,21.06l.28.36-.08.39c0,.43-.21,3-.4,5.19l-.06.81-.81.1c-.23,0-5.72.72-8.46.82ZM63.26,13.88A55.07,55.07,0,0,1,79.38,26.71c2.11-.12,5.46-.5,7-.68.13-1.65.25-3.32.3-4.05A45,45,0,0,0,64.88,6.89C64.2,10.14,63.57,12.66,63.26,13.88Z"/><path d="M20.81,46.16l-.49-.72c-6.19-9.06-7.11-14.7-7.14-14.94l-.06-.35.18-.3c6.64-11.33,13.66-14.78,14-14.93l.25-.11.27,0c9.94.92,15.2,4.56,15.42,4.72l.58.41-.2.69a141.63,141.63,0,0,0-4.11,17.81l-.08.62-.6.19a136.83,136.83,0,0,0-17.19,6.5ZM15.22,30.53c.28,1.26,1.59,6,6.27,13.08a144.37,144.37,0,0,1,16.09-6.06,146.38,146.38,0,0,1,3.86-16.74,34.26,34.26,0,0,0-13.55-4C26.67,17.53,20.81,21.14,15.22,30.53Z"/><path d="M72.39,82,72,82c-10.53-.84-18.74-7.89-19.08-8.18l-.43-.38.1-.55c1.17-6.53,2.47-19.37,2.48-19.5l.08-.72.7-.15a168.88,168.88,0,0,0,20.5-6.13l.66-.25.46.55C85,55.8,86.07,63.7,86.11,64l0,.25-.09.23C82.32,74,73.09,81.46,72.7,81.77ZM54.66,72.64c1.76,1.39,8.72,6.5,17.1,7.31,1.6-1.35,9.11-8,12.33-15.92-.23-1.32-1.63-8-7.71-15.54A173.65,173.65,0,0,1,57,54.29C56.7,57,55.65,66.84,54.66,72.64Z"/><path d="M28.85,90.39l-.41-.23A46.55,46.55,0,0,1,9.17,69.32L9,68.94l.54-1.46.47-.14a33,33,0,0,0,8.15-3.55l.82-.55.57.81c5.39,7.81,15.4,14.62,15.5,14.68l.47.32,0,.56a35.28,35.28,0,0,0,.45,8.51l.24,1-1,.19c-1.44.28-4.37.53-5.06.59ZM11.25,69A44.51,44.51,0,0,0,29,88.18l.76-.24s2.35-.19,4-.42a41.88,41.88,0,0,1-.33-7.45c-2-1.41-10-7.21-15-14.11A37.36,37.36,0,0,1,11.25,69Z"/></g><path d="M51.48,3.06A46.47,46.47,0,1,0,97.94,49.53,46.52,46.52,0,0,0,51.48,3.06Zm0,91.42A44.95,44.95,0,1,1,96.42,49.53a45,45,0,0,1-44.94,45Z"/><text x="0" y="115" fill="#000000" font-size="5px" font-weight="bold" font-family="'Helvetica Neue', Helvetica, Arial-Unicode, Arial, Sans-serif">Created by Soremba</text><text x="0" y="120" fill="#000000" font-size="5px" font-weight="bold" font-family="'Helvetica Neue', Helvetica, Arial-Unicode, Arial, Sans-serif">from the Noun Project</text></svg>